<svg xmlns="http://www.w3.org/2000/svg" width="256" height="256"><path fill-opacity=".016" d="M0 128.004v128.004l128.25-.254 128.25-.254.254-127.75L257.008 0H0v128.004m.485.496c0 70.4.119 99.053.265 63.672.146-35.38.146-92.98 0-128C.604 29.153.485 58.1.485 128.5" fill="#212121" fill-rule="evenodd"/><path fill-opacity=".299" d="M100.199 34.588c-2.857 1.424-6.746 4.401-8.642 6.617C86.618 46.975 85 52.621 85 64.086v9.73l-19.25.424c-15.121.334-20.268.802-23.994 2.185-6.551 2.429-14.074 9.485-17.456 16.372L21.5 98.5v102l2.464 5c3.457 7.017 10.818 13.901 17.562 16.424C46.975 223.963 48.534 224 128 224c79.466 0 81.025-.037 86.474-2.076 6.744-2.523 14.105-9.407 17.562-16.424l2.464-5v-102l-2.8-5.703c-3.382-6.887-10.905-13.943-17.456-16.372-3.726-1.383-8.873-1.851-23.994-2.185L171 73.816v-9.73c0-11.465-1.618-17.111-6.557-22.881-1.896-2.216-5.785-5.193-8.642-6.617C150.674 32.033 150.316 32 128 32s-22.674.033-27.801 2.588M108.2 55.2c-.752.752-1.2 4.489-1.2 10V74h42v-8.8c0-5.511-.448-9.248-1.2-10-1.692-1.692-37.908-1.692-39.6 0M49.014 97.752c-1.917.961-4.048 2.873-4.735 4.248-.943 1.886-1.253 13.502-1.264 47.3-.016 47.81.106 49.089 4.93 51.67 2.662 1.425 157.448 1.425 160.11 0 4.824-2.581 4.946-3.86 4.93-51.67-.011-33.798-.321-45.414-1.264-47.3-.687-1.375-2.818-3.287-4.735-4.248-3.227-1.619-9.103-1.749-78.986-1.749-69.883 0-75.759.13-78.986 1.749m67.065 15.834c-17.383 6.309-28.387 24.475-25.217 41.625 2.296 12.419 9.881 22.568 20.932 28.008 6.12 3.013 7.443 3.281 16.206 3.281s10.086-.268 16.206-3.281c22.951-11.298 28.52-40.439 11.287-59.053-7.744-8.365-14.507-11.452-25.993-11.863-6.439-.23-10.258.135-13.421 1.283m3.911 22.664c-5.321 3.621-7.375 7.123-7.375 12.574 0 5.503 2.402 10.361 6.708 13.571 2.117 1.579 4.288 2.105 8.677 2.105 6.653 0 10.198-1.985 13.442-7.526C147.375 146.842 139.861 134 128 134c-3.232 0-5.739.704-8.01 2.25" fill="#212121" fill-rule="evenodd"/><path fill-opacity=".38" d="M103.718 33.402C90.572 38.214 85 47.983 85 66.218V75H66.011c-16.322 0-19.701.27-24.056 1.925-7.749 2.945-13.361 8.123-17.155 15.831l-3.3 6.703v50.021c0 49.282.032 50.09 2.179 54.737 3.061 6.626 10.424 14.129 16.607 16.925L45.5 223.5h165l5.214-2.358c6.183-2.796 13.546-10.299 16.607-16.925 2.147-4.647 2.179-5.455 2.179-54.737V99.459l-3.3-6.703c-3.794-7.708-9.406-12.886-17.155-15.831-4.35-1.653-7.733-1.925-23.93-1.925h-18.863l-.448-11.25c-.64-16.073-4.405-23.281-15.17-29.039-3.859-2.064-5.599-2.227-26.134-2.452-16.744-.184-22.904.09-25.782 1.143m5.505 21.155c-2.03 1.421-2.223 2.375-2.223 11V75h42v-9.443C149 52.723 149.463 53 128 53c-13.365 0-16.983.3-18.777 1.557M48.11 97.396c-5.027 2.786-5.037 2.88-5.075 52.131-.038 50.468-.234 48.767 5.976 51.979 4.35 2.249 153.628 2.249 157.978 0 6.205-3.209 6.011-1.541 6.011-51.778 0-49.709-.036-50.057-5.472-52.533-4.018-1.831-156.099-1.639-159.418.201m71.39 15.48c-10.939 2.873-19.874 10.072-24.713 19.911-3.052 6.205-3.287 7.397-3.287 16.698 0 8.96.297 10.62 2.818 15.754 1.55 3.157 4.87 7.791 7.376 10.297 18.318 18.318 48.484 13.13 59.998-10.318 2.51-5.111 2.808-6.782 2.808-15.733 0-9.305-.234-10.491-3.293-16.71-3.975-8.082-11.255-14.874-19.207-17.92-5.896-2.258-17.54-3.282-22.5-1.979m3.241 21.521c-4.952 1.81-6.482 3.174-8.924 7.962C108.606 152.573 116.391 165 128 165c11.947 0 19.729-13.229 13.791-23.444-3.921-6.747-11.938-9.759-19.05-7.159" fill="#212121" fill-rule="evenodd"/><path fill-opacity=".697" d="M106.5 32.933c-8.779 2.382-14.684 7.12-18.149 14.56-2.002 4.299-2.333 6.588-2.341 16.183L86 74.853l-20.25.323c-18.622.298-20.652.509-25.25 2.622-6.774 3.113-12.81 9.274-15.958 16.287l-2.612 5.821.285 50.797.285 50.797 2.946 5.319c3.588 6.476 8.174 10.64 15.508 14.08L46.5 223.5l78.862.279c67.541.239 79.704.064 84.728-1.224 9.834-2.519 16.224-7.623 21.208-16.939 2.175-4.065 2.206-4.745 2.487-54.913l.285-50.797-2.612-5.821c-3.148-7.013-9.184-13.174-15.958-16.287-4.598-2.113-6.628-2.324-25.25-2.622L170 74.853l-.01-11.177c-.008-9.595-.339-11.884-2.341-16.183-2.574-5.526-7.738-10.594-13.436-13.186-3.029-1.377-7.489-1.734-24.213-1.938-11.275-.138-21.85.116-23.5.564M108 55c-1.704 1.704-2 3.333-2 11v9h44v-9c0-13.293.496-13-22-13-16.667 0-18.148.148-20 2M47.117 97.631c-4.956 3.471-5.117 5.11-5.117 51.936 0 47.986.105 48.885 6.085 51.977 4.22 2.182 155.61 2.182 159.83 0 5.98-3.092 6.085-3.991 6.085-51.977 0-46.826-.161-48.465-5.117-51.936C206.779 96.157 199.006 96 128 96s-78.779.157-80.883 1.631m73.928 15.461c-11.422 2.239-21.268 10.022-26.45 20.908-2.758 5.793-3.092 7.479-3.072 15.5.02 7.593.436 9.887 2.661 14.675 3.516 7.567 9.454 13.808 17.064 17.935 5.978 3.241 6.713 3.39 16.752 3.39 10.039 0 10.774-.149 16.752-3.39 7.61-4.127 13.548-10.368 17.064-17.935 2.225-4.788 2.641-7.082 2.661-14.675.02-8.021-.314-9.707-3.072-15.5-5.435-11.417-14.815-18.612-27.365-20.992-5.997-1.138-6.786-1.133-12.995.084m.405 21.259c-3.638 1.651-8.206 6.829-9.074 10.286-1.026 4.089.213 10.976 2.57 14.287 2.955 4.149 7.581 6.428 13.054 6.428 16.091 0 22.009-19.885 8.824-29.65-3.375-2.5-11.305-3.197-15.374-1.351" fill="#212121" fill-rule="evenodd"/></svg>